<?xml version="1.0" encoding="UTF-8" standalone="no"?>
<svg
   xmlns:dc="http://purl.org/dc/elements/1.1/"
   xmlns:cc="http://creativecommons.org/ns#"
   xmlns:rdf="http://www.w3.org/1999/02/22-rdf-syntax-ns#"
   xmlns:svg="http://www.w3.org/2000/svg"
   xmlns="http://www.w3.org/2000/svg"
   xmlns:sodipodi="http://sodipodi.sourceforge.net/DTD/sodipodi-0.dtd"
   xmlns:inkscape="http://www.inkscape.org/namespaces/inkscape"
   version="1.1"
   viewBox="-10 0 2103.01 2039.309"
   id="svg831"
   sodipodi:docname="iint_Quivira.svg"
   width="2103.01"
   height="2039.309"
   inkscape:version="0.92.4 (5da689c313, 2019-01-14)">
  <metadata
     id="metadata837">
    <rdf:RDF>
      <cc:Work
         rdf:about="">
        <dc:format>image/svg+xml</dc:format>
        <dc:type
           rdf:resource="http://purl.org/dc/dcmitype/StillImage" />
        <dc:title></dc:title>
      </cc:Work>
    </rdf:RDF>
  </metadata>
  <defs
     id="defs835" />
  <sodipodi:namedview
     pagecolor="#ffffff"
     bordercolor="#666666"
     borderopacity="1"
     objecttolerance="10"
     gridtolerance="10"
     guidetolerance="10"
     inkscape:pageopacity="0"
     inkscape:pageshadow="2"
     inkscape:window-width="1920"
     inkscape:window-height="1200"
     id="namedview833"
     showgrid="false"
     inkscape:zoom="0.33594477"
     inkscape:cx="-566.81674"
     inkscape:cy="967.86672"
     inkscape:window-x="1909"
     inkscape:window-y="382"
     inkscape:window-maximized="1"
     inkscape:current-layer="g829" />
  <g
     transform="matrix(1,0,0,-1,0,1629.309)"
     id="g829">
    <path
       d="m 1130.4467,1568.5142 q -69.1781,26.2756 -136.06491,-14.6407 -74.66244,-52.9388 -116.20624,-162.3148 -64.62369,-170.1405 -75.40982,-423.84244 L 780.10845,341.98737 Q 775.25033,78.545911 711.69186,-88.790041 632.155,-298.19368 498.77243,-370.54756 q -121.64296,-63.97643 -226.34477,-24.208 -102.83213,39.05829 -152.48096,116.74993 -47.460184,69.37241 -26.568957,138.4561 11.007337,28.97997 44.450757,49.438129 36.02327,21.61768 69.67742,8.83497 82.2657,-31.246619 60.87504,-135.440859 -23.26033,-103.48409 60.87505,-135.44087 57.95993,-22.01467 131.20205,27.18481 70.40154,41.72077 113.01056,153.9013 64.26862,169.2056149 75.67061,430.16154 l 21.59205,622.92438 q 5.30749,258.99203 69.57611,428.19763 77.40641,203.7946 207.98446,277.2137 118.38905,69.4912 238.98305,23.6864 96.2883,-36.5727 141.4875,-114.7137 49.7432,-83.076 26.6633,-143.8405 -14.203,-37.3935 -45.871,-53.1774 -32.7333,-18.5885 -68.2571,-5.0957 -93.4838,35.5076 -66.3758,163.2031 24.7027,84.7513 -44.4751,111.0268 z"
       id="path827"
       inkscape:connector-curvature="0"
       style="fill:currentColor" />
    <path
       d="m 1783.4543,1568.5142 q -69.1781,26.2756 -136.0648,-14.6407 -74.6625,-52.9388 -116.2063,-162.3148 -64.6237,-170.1405 -75.4098,-423.8424 L 1433.1161,341.98742 Q 1428.258,78.545923 1364.6995,-88.789981 1285.1626,-298.19367 1151.78,-370.54757 q -121.6429,-63.97641 -226.34476,-24.208 -102.83215,39.0583 -152.48099,116.75 -47.46019,69.3724 -26.56896,138.45609 11.00734,28.9799 44.45077,49.438099 36.02327,21.6177 69.67743,8.835 82.26571,-31.246599 60.87505,-135.440889 -23.26034,-103.4841 60.87506,-135.4409 57.9599,-22.0146 131.202,27.1849 70.4016,41.7207 113.0106,153.90129 64.2687,169.2056024 75.6707,430.1615 l 21.592,622.92438 q 5.3075,258.992 69.5761,428.1976 77.4064,203.7946 207.9845,277.2137 118.389,69.4912 238.9831,23.6864 96.2883,-36.5727 141.4875,-114.7137 49.7432,-83.076 26.6633,-143.8405 -14.203,-37.3935 -45.871,-53.1774 -32.7333,-18.5885 -68.2571,-5.0957 -93.4838,35.5076 -66.3758,163.2031 24.7027,84.7513 -44.4752,111.0268 z"
       id="path827-1"
       inkscape:connector-curvature="0"
       style="fill:currentColor" />
  </g>
</svg>
