<?xml version="1.0" encoding="UTF-8" standalone="no"?>
<svg
   xmlns:dc="http://purl.org/dc/elements/1.1/"
   xmlns:cc="http://creativecommons.org/ns#"
   xmlns:rdf="http://www.w3.org/1999/02/22-rdf-syntax-ns#"
   xmlns:svg="http://www.w3.org/2000/svg"
   xmlns="http://www.w3.org/2000/svg"
   xmlns:sodipodi="http://sodipodi.sourceforge.net/DTD/sodipodi-0.dtd"
   xmlns:inkscape="http://www.inkscape.org/namespaces/inkscape"
   version="1.1"
   viewBox="-10 0 1450 2039.309"
   id="svg831"
   sodipodi:docname="int_Quivira.svg"
   width="1450"
   height="2039.309"
   inkscape:version="0.92.4 (5da689c313, 2019-01-14)">
  <metadata
     id="metadata837">
    <rdf:RDF>
      <cc:Work
         rdf:about="">
        <dc:format>image/svg+xml</dc:format>
        <dc:type
           rdf:resource="http://purl.org/dc/dcmitype/StillImage" />
        <dc:title></dc:title>
      </cc:Work>
    </rdf:RDF>
  </metadata>
  <defs
     id="defs835" />
  <sodipodi:namedview
     pagecolor="#ffffff"
     bordercolor="#666666"
     borderopacity="1"
     objecttolerance="10"
     gridtolerance="10"
     guidetolerance="10"
     inkscape:pageopacity="0"
     inkscape:pageshadow="2"
     inkscape:window-width="1920"
     inkscape:window-height="1200"
     id="namedview833"
     showgrid="false"
     inkscape:zoom="0.33594477"
     inkscape:cx="-566.81674"
     inkscape:cy="1206.0011"
     inkscape:window-x="1909"
     inkscape:window-y="382"
     inkscape:window-maximized="1"
     inkscape:current-layer="g829"
     inkscape:pagecheckerboard="true" />
  <g
     transform="matrix(1,0,0,-1,0,1629.309)"
     id="g829">
    <path
       d="m 1130.4468,1568.5142 q -69.1781,26.2756 -136.06488,-14.6407 -74.66245,-52.9388 -116.20626,-162.3148 -64.6237,-170.1405 -75.40983,-423.84244 L 780.10855,341.98737 Q 775.25043,78.545911 711.69195,-88.790041 632.15508,-298.19368 498.77249,-370.54756 q -121.64298,-63.97643 -226.3448,-24.208 -102.83215,39.05829 -152.48099,116.74993 -47.460186,69.37241 -26.568956,138.4561 11.007336,28.97997 44.450766,49.438129 36.02327,21.61768 69.67743,8.83497 82.26571,-31.246619 60.87505,-135.440859 -23.26034,-103.48409 60.87505,-135.44087 57.95994,-22.01467 131.20207,27.18481 70.40155,41.72077 113.01058,153.9013 64.26863,169.2056149 75.67062,430.16154 l 21.59205,622.92438 q 5.30749,258.99203 69.57612,428.19763 77.40642,203.7946 207.98449,277.2137 118.38903,69.4912 238.98313,23.6864 96.2883,-36.5727 141.4875,-114.7137 49.7432,-83.076 26.6633,-143.8405 -14.203,-37.3935 -45.871,-53.1774 -32.7333,-18.5885 -68.2571,-5.0957 -93.4838,35.5076 -66.3758,163.2031 24.7027,84.7513 -44.4752,111.0268 z"
       id="path827"
       inkscape:connector-curvature="0"
       style="fill:currentColor" />
  </g>
</svg>
